<svg width="295" height="73" viewBox="0 0 295 73" fill="none" xmlns="http://www.w3.org/2000/svg">
<path d="M26.17 72.08C21.13 72.08 16.3 71.42 11.68 70.1C7.06 68.72 3.34 66.95 0.52 64.79L5.47 53.81C8.17 55.73 11.35 57.32 15.01 58.58C18.73 59.78 22.48 60.38 26.26 60.38C29.14 60.38 31.45 60.11 33.19 59.57C34.99 58.97 36.31 58.16 37.15 57.14C37.99 56.12 38.41 54.95 38.41 53.63C38.41 51.95 37.75 50.63 36.43 49.67C35.11 48.65 33.37 47.84 31.21 47.24C29.05 46.58 26.65 45.98 24.01 45.44C21.43 44.84 18.82 44.12 16.18 43.28C13.6 42.44 11.23 41.36 9.07 40.04C6.91 38.72 5.14 36.98 3.76 34.82C2.44 32.66 1.78 29.9 1.78 26.54C1.78 22.94 2.74 19.67 4.66 16.73C6.64 13.73 9.58 11.36 13.48 9.62C17.44 7.82 22.39 6.92 28.33 6.92C32.29 6.92 36.19 7.4 40.03 8.36C43.87 9.26 47.26 10.64 50.2 12.5L45.7 23.57C42.76 21.89 39.82 20.66 36.88 19.88C33.94 19.04 31.06 18.62 28.24 18.62C25.42 18.62 23.11 18.95 21.31 19.61C19.51 20.27 18.22 21.14 17.44 22.22C16.66 23.24 16.27 24.44 16.27 25.82C16.27 27.44 16.93 28.76 18.25 29.78C19.57 30.74 21.31 31.52 23.47 32.12C25.63 32.72 28 33.32 30.58 33.92C33.22 34.52 35.83 35.21 38.41 35.99C41.05 36.77 43.45 37.82 45.61 39.14C47.77 40.46 49.51 42.2 50.83 44.36C52.21 46.52 52.9 49.25 52.9 52.55C52.9 56.09 51.91 59.33 49.93 62.27C47.95 65.21 44.98 67.58 41.02 69.38C37.12 71.18 32.17 72.08 26.17 72.08ZM79.4226 71.72C74.2026 71.72 69.5526 70.67 65.4726 68.57C61.3926 66.41 58.1826 63.44 55.8426 59.66C53.5626 55.88 52.4226 51.59 52.4226 46.79C52.4226 41.93 53.5626 37.64 55.8426 33.92C58.1826 30.14 61.3926 27.2 65.4726 25.1C69.5526 22.94 74.2026 21.86 79.4226 21.86C84.5226 21.86 88.9626 22.94 92.7426 25.1C96.5226 27.2 99.3126 30.23 101.113 34.19L90.2226 40.04C88.9626 37.76 87.3726 36.08 85.4526 35C83.5926 33.92 81.5526 33.38 79.3326 33.38C76.9326 33.38 74.7726 33.92 72.8526 35C70.9326 36.08 69.4026 37.61 68.2626 39.59C67.1826 41.57 66.6426 43.97 66.6426 46.79C66.6426 49.61 67.1826 52.01 68.2626 53.99C69.4026 55.97 70.9326 57.5 72.8526 58.58C74.7726 59.66 76.9326 60.2 79.3326 60.2C81.5526 60.2 83.5926 59.69 85.4526 58.67C87.3726 57.59 88.9626 55.88 90.2226 53.54L101.113 59.48C99.3126 63.38 96.5226 66.41 92.7426 68.57C88.9626 70.67 84.5226 71.72 79.4226 71.72ZM103.346 71V22.58H116.756V36.26L114.866 32.3C116.306 28.88 118.616 26.3 121.796 24.56C124.976 22.76 128.846 21.86 133.406 21.86V34.82C132.806 34.76 132.266 34.73 131.786 34.73C131.306 34.67 130.796 34.64 130.256 34.64C126.416 34.64 123.296 35.75 120.896 37.97C118.556 40.13 117.386 43.52 117.386 48.14V71H103.346ZM135.992 71V22.58H150.032V71H135.992ZM143.012 15.83C140.432 15.83 138.332 15.08 136.712 13.58C135.092 12.08 134.282 10.22 134.282 8C134.282 5.78 135.092 3.92 136.712 2.42C138.332 0.919996 140.432 0.169995 143.012 0.169995C145.592 0.169995 147.692 0.889996 149.312 2.33C150.932 3.71 151.742 5.51 151.742 7.73C151.742 10.07 150.932 12.02 149.312 13.58C147.752 15.08 145.652 15.83 143.012 15.83ZM185.833 71.72C181.573 71.72 177.913 70.82 174.853 69.02C171.793 67.22 169.453 64.49 167.833 60.83C166.213 57.11 165.403 52.43 165.403 46.79C165.403 41.09 166.243 36.41 167.923 32.75C169.663 29.09 172.063 26.36 175.123 24.56C178.183 22.76 181.753 21.86 185.833 21.86C190.393 21.86 194.473 22.88 198.073 24.92C201.733 26.96 204.613 29.84 206.713 33.56C208.873 37.28 209.953 41.69 209.953 46.79C209.953 51.83 208.873 56.21 206.713 59.93C204.613 63.65 201.733 66.56 198.073 68.66C194.473 70.7 190.393 71.72 185.833 71.72ZM157.213 71V4.22H171.253V32.39L170.353 46.7L170.623 61.1V71H157.213ZM183.403 60.2C185.743 60.2 187.813 59.66 189.613 58.58C191.473 57.5 192.943 55.97 194.023 53.99C195.163 51.95 195.733 49.55 195.733 46.79C195.733 43.97 195.163 41.57 194.023 39.59C192.943 37.61 191.473 36.08 189.613 35C187.813 33.92 185.743 33.38 183.403 33.38C181.063 33.38 178.963 33.92 177.103 35C175.243 36.08 173.773 37.61 172.693 39.59C171.613 41.57 171.073 43.97 171.073 46.79C171.073 49.55 171.613 51.95 172.693 53.99C173.773 55.97 175.243 57.5 177.103 58.58C178.963 59.66 181.063 60.2 183.403 60.2ZM237.531 71.72C232.011 71.72 227.151 70.64 222.951 68.48C218.811 66.32 215.601 63.38 213.321 59.66C211.041 55.88 209.901 51.59 209.901 46.79C209.901 41.93 211.011 37.64 213.231 33.92C215.511 30.14 218.601 27.2 222.501 25.1C226.401 22.94 230.811 21.86 235.731 21.86C240.471 21.86 244.731 22.88 248.511 24.92C252.351 26.9 255.381 29.78 257.601 33.56C259.821 37.28 260.931 41.75 260.931 46.97C260.931 47.51 260.901 48.14 260.841 48.86C260.781 49.52 260.721 50.15 260.661 50.75H221.331V42.56H253.281L247.881 44.99C247.881 42.47 247.371 40.28 246.351 38.42C245.331 36.56 243.921 35.12 242.121 34.1C240.321 33.02 238.221 32.48 235.821 32.48C233.421 32.48 231.291 33.02 229.431 34.1C227.631 35.12 226.221 36.59 225.201 38.51C224.181 40.37 223.671 42.59 223.671 45.17V47.33C223.671 49.97 224.241 52.31 225.381 54.35C226.581 56.33 228.231 57.86 230.331 58.94C232.491 59.96 235.011 60.47 237.891 60.47C240.471 60.47 242.721 60.08 244.641 59.3C246.621 58.52 248.421 57.35 250.041 55.79L257.511 63.89C255.291 66.41 252.501 68.36 249.141 69.74C245.781 71.06 241.911 71.72 237.531 71.72ZM264.429 71V22.58H277.839V36.26L275.949 32.3C277.389 28.88 279.699 26.3 282.879 24.56C286.059 22.76 289.929 21.86 294.489 21.86V34.82C293.889 34.76 293.349 34.73 292.869 34.73C292.389 34.67 291.879 34.64 291.339 34.64C287.499 34.64 284.379 35.75 281.979 37.97C279.639 40.13 278.469 43.52 278.469 48.14V71H264.429Z" fill="black"/>
</svg>
